<svg width="177" height="43" viewBox="0 0 177 43" fill="none" xmlns="http://www.w3.org/2000/svg">
<path d="M45.9 10.018L40.55 28.6625C40.15 29.9903 39.1 30.8755 37.85 30.8755H17.2C16 30.8755 14.85 30.0456 14.45 28.8285L6.55 5.426H2C0.9 5.426 0 4.43015 0 3.213C0 1.99585 0.9 1 2 1H7.95C8.8 1 9.55 1.60858 9.85 2.49378L18 26.4495H37L41.25 11.5118H17.7C16.6 11.5118 15.7 10.5159 15.7 9.29875C15.7 8.0816 16.6 7.08575 17.7 7.08575H44C44.65 7.08575 45.25 7.47303 45.6 8.02628C46 8.57953 46.1 9.35408 45.9 10.018ZM18.2 33.8077C17.35 33.8077 16.5 34.195 15.9 34.8589C15.3 35.5228 14.95 36.4633 14.95 37.4039C14.95 38.3444 15.3 39.2849 15.9 39.9488C16.5 40.6127 17.35 41 18.2 41C19.05 41 19.9 40.6127 20.5 39.9488C21.1 39.2849 21.45 38.3444 21.45 37.4039C21.45 36.4633 21.1 35.5228 20.5 34.8589C19.9 34.195 19.05 33.8077 18.2 33.8077ZM36.15 33.8077C35.3 33.8077 34.45 34.195 33.85 34.8589C33.25 35.5228 32.9 36.4633 32.9 37.4039C32.9 38.3444 33.25 39.2849 33.85 39.9488C34.45 40.6127 35.3 41 36.15 41C37 41 37.85 40.6127 38.45 39.9488C39.05 39.2849 39.4 38.3444 39.4 37.4039C39.4 36.4633 39.05 35.5228 38.45 34.8589C37.85 34.195 37 33.8077 36.15 33.8077Z" fill="#6780FF"/>
<path d="M61.3434 36L66.0522 7.63636H83.8349L83.2255 11.3203H69.7223L68.282 19.9624H80.8572L80.2479 23.6325H67.6726L66.2322 32.3161H79.9016L79.2923 36H61.3434ZM89.5512 7.63636H94.7448L100.146 29.6847H100.478L113.137 7.63636H118.33L113.622 36H109.55L112.971 15.4751H112.707L100.935 35.9585H97.5423L92.6119 15.4613H92.3488L88.9142 36H84.8424L89.5512 7.63636ZM125.646 36.4709C124.298 36.4709 123.121 36.2216 122.115 35.723C121.108 35.2152 120.365 34.4812 119.885 33.521C119.405 32.5607 119.28 31.3835 119.511 29.9893C119.714 28.7891 120.111 27.8011 120.702 27.0256C121.302 26.25 122.032 25.636 122.89 25.1836C123.749 24.7219 124.681 24.3757 125.688 24.1449C126.694 23.9141 127.71 23.7433 128.735 23.6325C130.027 23.4847 131.075 23.3601 131.879 23.2585C132.691 23.157 133.3 23 133.707 22.7876C134.113 22.5661 134.358 22.206 134.441 21.7074V21.6104C134.635 20.4102 134.459 19.4776 133.914 18.8129C133.379 18.1388 132.446 17.8018 131.117 17.8018C129.732 17.8018 128.569 18.1065 127.627 18.7159C126.694 19.3253 126.006 20.0085 125.563 20.7656L121.852 19.8793C122.516 18.5866 123.361 17.5433 124.386 16.7493C125.42 15.946 126.551 15.3643 127.779 15.0043C129.007 14.6349 130.263 14.4503 131.546 14.4503C132.396 14.4503 133.277 14.5518 134.191 14.755C135.105 14.9489 135.936 15.3089 136.684 15.8352C137.441 16.3615 138.005 17.114 138.374 18.0927C138.743 19.0621 138.799 20.3224 138.54 21.8736L136.2 36H132.156L132.654 33.0916H132.488C132.137 33.6271 131.648 34.1534 131.02 34.6705C130.401 35.1875 129.644 35.6168 128.749 35.9585C127.853 36.3001 126.819 36.4709 125.646 36.4709ZM127.059 33.147C128.213 33.147 129.233 32.9208 130.12 32.4684C131.015 32.016 131.74 31.4251 132.294 30.6957C132.848 29.957 133.194 29.1676 133.333 28.3274L133.79 25.5852C133.614 25.733 133.305 25.8668 132.862 25.9869C132.428 26.1069 131.939 26.2131 131.394 26.3054C130.849 26.3977 130.314 26.4762 129.787 26.5408C129.27 26.6055 128.841 26.6655 128.499 26.7209C127.687 26.8224 126.925 26.9933 126.214 27.2333C125.512 27.4734 124.926 27.8196 124.455 28.272C123.984 28.7152 123.689 29.3061 123.569 30.0447C123.403 31.0696 123.647 31.8452 124.303 32.3714C124.968 32.8885 125.886 33.147 127.059 33.147ZM141.715 36L145.261 14.7273H149.263L148.695 18.1065H148.917C149.489 16.9616 150.325 16.0614 151.424 15.4059C152.522 14.7411 153.695 14.4087 154.941 14.4087C155.209 14.4087 155.514 14.418 155.855 14.4364C156.197 14.4457 156.474 14.4687 156.686 14.5057L156.022 18.4666C155.865 18.4205 155.578 18.3697 155.163 18.3143C154.747 18.2496 154.318 18.2173 153.875 18.2173C152.905 18.2173 152.005 18.4251 151.174 18.8406C150.343 19.2468 149.646 19.8146 149.083 20.544C148.52 21.2642 148.155 22.0859 147.989 23.0092L145.856 36H141.715ZM171.491 14.7273L170.951 18.0511H159.332L159.872 14.7273H171.491ZM163.819 9.63068H167.96L164.608 29.7539C164.479 30.5572 164.502 31.1619 164.677 31.5682C164.853 31.9652 165.121 32.2376 165.481 32.3853C165.85 32.5238 166.261 32.593 166.713 32.593C167.046 32.593 167.337 32.57 167.586 32.5238C167.835 32.4776 168.034 32.4407 168.181 32.413L168.403 35.8338C168.126 35.9261 167.752 36.0185 167.281 36.1108C166.82 36.2124 166.256 36.2678 165.592 36.277C164.502 36.2955 163.519 36.1016 162.642 35.6953C161.764 35.2798 161.109 34.652 160.675 33.8118C160.241 32.9624 160.135 31.896 160.356 30.6126L163.819 9.63068Z" fill="#00C87B"/>
</svg>
